Patient4_TMGait_0pt6_02_right_18_EMG.mot
version=1
nRows=13
nColumns=33
inDegrees=no
endheader
time	1LAddLong	2LGlutMax	3LGlutMed	4LIliopsoas	5LSemiMemb	6LBicFemLong	7LRecFem	8LVastMed	9LVastLat	10LGasMed	11LTibAnt	12lTibPost	13LPeroneusLong	14LSol	15LExtDigLong	16LFlexDigLong	17RAddLong	18RGlutMax	19RGlutMed	20RIliopsoas	21RSemiMemb	22RBicFemLong	23RRecFem	24RVastMed	25RVastLat	26RGasMed	27RTibAnt	28RTibPost	29RPeroneusLong	30RSol	31RExtDigLong	32RFlexDigLong
22.365	-0.015259	0.45303	0.065155	0.005646	-0.10284	0.2803	-0.009308	-0.024414	-0.14648	0.004578	0.009003	0.005646	0.004272	-0.013123	-0.036316	-0.000763	0.014801	-0.060577	0.066376	0.063019	0.091248	-0.003357	-0.15167	-0.01236	0.028381	0.045319	0.005188	-0.01236	0.072479	0.13702	-0.004883	-0.009918
22.366	0.001984	0.466	0.051117	-0.002289	-0.15259	0.062561	0.00885	-0.03006	-0.2562	0.001068	0.019379	0.010223	-0.04776	0.000458	-0.035706	-0.006561	-0.009003	-0.080872	0.091858	0.054779	0.032196	0.15808	-0.17456	-0.020905	0.022278	0.050201	0.000305	0.059052	0.10864	0.3154	0.000916	-0.017242
22.367	0.056305	0.50568	0.038757	-0.003052	-0.035706	-0.19318	-0.056915	-0.036163	-0.16159	0.000305	0.004578	0.007782	0.03006	0.000916	-0.01358	-0.000763	-0.012665	-0.12604	0.017853	0.035248	0.14389	0.041199	-0.15656	0.01236	0.025635	0.030518	-0.006409	0.12787	0.19699	1.0262	-0.007782	-0.00824
22.368	0.07309	0.46921	0.021515	0.011902	0.14084	-0.49164	-0.013885	-0.027771	-0.13153	-0.00885	-0.012665	0.00885	0.24414	-0.017853	-0.016785	-0.000305	-0.004272	-0.094604	-0.007172	0.013885	0.22919	-0.049896	-0.16525	-0.029449	-0.008545	0.013733	-0.027008	0.10178	0.42801	1.0985	-0.00412	-0.010529
22.369	0.067749	0.50751	0.023193	-0.002136	0.092163	-0.38803	-0.006561	-0.030365	0.000916	0.002441	0.004425	0.00946	0.043488	-0.002441	-0.012207	-0.001678	-0.020142	-0.081024	-0.018463	0.017853	0.13153	0.063171	-0.20081	0.012512	-0.005035	0.01709	-0.017242	-0.20432	0.50095	-0.087891	-0.006409	-0.00946
22.37	0.071259	0.41855	0.054474	-0.001984	0.080566	-0.16403	-0.045013	-0.018005	0.046844	0.01297	0.009766	0.005798	-0.076141	-0.004883	-0.003967	-0.011139	-0.031281	-0.046692	0.030518	0.027771	0.010223	0.15976	-0.17334	0.010529	-0.002136	-0.000458	-0.051117	-0.25604	0.42541	-0.89829	-0.001678	-0.019226
22.371	0.073853	0.38345	0.056305	0.005035	0.004883	0.000763	-0.029602	-0.006561	0.064545	0.023499	0.015106	0.013885	-0.016632	-0.029449	-0.000763	0.00824	-0.042114	-0.031738	-0.027771	-0.002136	-0.26703	0.19943	-0.19516	-0.015259	0.007477	-0.047302	-0.062408	0.23163	0.2034	-0.48828	-0.00061	-0.022125
22.372	0.063019	0.37064	-0.005646	-0.006256	0.022278	0.051117	-0.021515	-0.001068	0.035706	0.009155	0.011292	0.012512	0.008392	-0.018616	0.021515	-0.008087	-0.028229	0.061798	0.067902	-0.02243	-0.43671	0.11581	-0.17487	-0.026855	-0.008392	-0.048065	-0.015869	-0.19028	-0.18021	-0.52322	-0.003052	-0.018616
22.373	0.04425	0.33005	-0.001831	0.014191	0.054016	0.007935	0.027313	-0.001221	0.019073	0.026703	0.00885	0.014191	0.016022	-0.018158	0.009613	0.007629	-0.005646	0.048065	0.10452	0.007172	-0.11841	-0.065155	-0.17502	-0.002289	-0.006409	-0.038757	0.025177	0.055695	-0.4245	-0.59494	-0.00351	-0.023499
22.374	0.033112	0.30991	-0.024261	0.001221	0.058289	-0.08194	0.053101	-0.007324	-0.009003	0.025024	0.027161	0.011292	0.006409	0.005188	-0.030212	-0.000763	-0.017853	0.02594	0.076599	0.057983	0.21316	-0.088654	-0.13962	0.001984	-0.015869	-0.055695	0.033112	-0.22308	-0.33295	0.21713	-0.001373	-0.016785
22.375	0.005951	0.30456	-0.014801	-0.001831	0.027008	0.049591	0.070343	0.007172	-0.026855	0.031891	0.010681	0.019684	0.003967	0.007477	-0.038757	-0.001678	-0.023041	-0.017853	0.059052	0.025482	0.21545	-0.11276	-0.16464	0.063477	-0.009613	-0.058594	0.004883	0.38361	0.02243	0.4512	-0.000763	-0.019379
22.376	-0.016632	0.31296	-0.050354	-0.010223	-0.05722	0.24643	0.11429	0.007019	-0.041962	0.028992	0.014191	0.018616	0.011749	-0.005798	-0.034332	0.001831	-0.016632	0.006256	0.36621	0.048065	0.22949	-0.010986	-0.14786	0.058746	-0.015411	-0.032349	0.009766	0.30548	0.24216	0.70633	-0.003662	-0.017242
22.377	-0.023804	0.31113	-0.051117	-0.005188	-0.095367	0.049591	0.12039	0.02594	-0.037537	0.036163	0.01236	0.009308	0.000153	-0.020294	-0.02594	-0.002594	-0.001221	-0.02182	0.29602	0.057068	0.20462	0.026245	-0.17792	0.040131	-0.007477	-0.00946	0.024872	0.13428	0.13199	0.39978	0.003967	-0.026855
